<?xml version="1.0" encoding="UTF-8" standalone="no"?>
<!-- Created with Inkscape (http://www.inkscape.org/) -->

<svg
   xmlns:dc="http://purl.org/dc/elements/1.1/"
   xmlns:cc="http://creativecommons.org/ns#"
   xmlns:rdf="http://www.w3.org/1999/02/22-rdf-syntax-ns#"
   xmlns:svg="http://www.w3.org/2000/svg"
   xmlns="http://www.w3.org/2000/svg"
   xmlns:sodipodi="http://sodipodi.sourceforge.net/DTD/sodipodi-0.dtd"
   xmlns:inkscape="http://www.inkscape.org/namespaces/inkscape"
   width="105.82864mm"
   height="25.791376mm"
   viewBox="0 0 105.82864 25.791376"
   version="1.1"
   id="svg4722"
   inkscape:version="0.92.1 r15371"
   sodipodi:docname="poutyne-light.svg">
  <defs
     id="defs4716" />
  <sodipodi:namedview
     id="base"
     pagecolor="#ffffff"
     bordercolor="#666666"
     borderopacity="1.0"
     inkscape:pageopacity="0.0"
     inkscape:pageshadow="2"
     inkscape:zoom="2.8284271"
     inkscape:cx="227.7565"
     inkscape:cy="47.402984"
     inkscape:document-units="mm"
     inkscape:current-layer="layer1"
     showgrid="false"
     fit-margin-top="0"
     fit-margin-left="0"
     fit-margin-right="0"
     fit-margin-bottom="0"
     inkscape:window-width="1920"
     inkscape:window-height="1016"
     inkscape:window-x="1680"
     inkscape:window-y="27"
     inkscape:window-maximized="1" />
  <metadata
     id="metadata4719">
    <rdf:RDF>
      <cc:Work
         rdf:about="">
        <dc:format>image/svg+xml</dc:format>
        <dc:type
           rdf:resource="http://purl.org/dc/dcmitype/StillImage" />
        <dc:title></dc:title>
      </cc:Work>
    </rdf:RDF>
  </metadata>
  <g
     inkscape:label="Calque 1"
     inkscape:groupmode="layer"
     id="layer1"
     transform="translate(-35.532207,-29.34836)">
    <path
       sodipodi:nodetypes="ccccccc"
       inkscape:connector-curvature="0"
       id="path1183-4-1-9-4-3"
       d="m 56.662705,43.98858 -1.976307,-0.29546 c 0,0 -8.031233,3.16135 -11.664309,3.78385 -3.63307,0.62251 -7.489882,1.69737 -7.489882,1.69737 l 1.443765,1.8776 c 0,0 11.333529,-2.53121 13.150064,-3.17966 1.816541,-0.64844 6.536669,-3.8837 6.536669,-3.8837 z"
       style="fill:#fed86b;fill-opacity:1;stroke:none;stroke-width:0.1138476px;stroke-linecap:butt;stroke-linejoin:miter;stroke-opacity:1" />
    <path
       sodipodi:nodetypes="ccccc"
       inkscape:connector-curvature="0"
       id="path1185-7-5-3-4-5"
       d="m 36.903231,50.69326 0.18028,1.9808 -1.345063,-1.77861 -0.206241,-1.72111 c 0,0 1.243552,1.46704 1.371024,1.51892 z"
       style="fill:#fdc33b;fill-opacity:1;stroke:none;stroke-width:0.1138476px;stroke-linecap:butt;stroke-linejoin:miter;stroke-opacity:1" />
    <path
       sodipodi:nodetypes="csscccscc"
       inkscape:connector-curvature="0"
       id="path1179-3-4-9-6-3-6"
       d="m 56.662705,43.98858 c 0,0 -1.182034,0.80724 -2.925109,1.7865 -3.686609,2.07113 -10.608005,4.14703 -14.76116,4.6614 l -2.073205,0.25678 0.18028,1.9808 c 0,0 9.062401,-2.06522 11.406022,-2.83553 2.343621,-0.77031 6.486393,-2.93799 7.072301,-3.34149 0.585909,-0.4035 1.268893,-1.04628 1.268893,-1.04628 z"
       style="fill:#ffa60c;fill-opacity:1;stroke:none;stroke-width:0.1138476px;stroke-linecap:butt;stroke-linejoin:miter;stroke-opacity:1" />
    <g
       id="g1244-4-4-0-0-2"
       transform="matrix(0.60472881,0,0,0.30265206,-58.79263,-11.181952)">
      <path
         sodipodi:nodetypes="ccccccc"
         inkscape:connector-curvature="0"
         id="path1183-2-3-9-6-7-9"
         d="m 160.24326,186.09115 2.38478,-2.01029 c 0,0 12.69667,10.08742 18.16207,12.15442 5.46539,2.06702 11.50609,5.08141 11.50609,5.08141 l -2.41064,6.78914 c 0,0 -17.04954,-8.4048 -19.78223,-10.55794 -2.73271,-2.15313 -9.86007,-11.45674 -9.86007,-11.45674 z"
         style="fill:#fed86b;fill-opacity:1;stroke:none;stroke-width:0.25444692px;stroke-linecap:butt;stroke-linejoin:miter;stroke-opacity:1" />
      <path
         sodipodi:nodetypes="ccccc"
         inkscape:connector-curvature="0"
         id="path1185-0-0-0-2-8-1"
         d="m 189.99498,206.91485 -0.2712,6.5772 2.61468,-5.9322 -0.0423,-6.24316 c 0,0 -2.10946,5.42592 -2.30122,5.59816 z"
         style="fill:#fdc33b;fill-opacity:1;stroke:none;stroke-width:0.25444692px;stroke-linecap:butt;stroke-linejoin:miter;stroke-opacity:1" />
      <path
         sodipodi:nodetypes="cscccscc"
         inkscape:connector-curvature="0"
         id="path1179-3-6-7-9-6-6-2"
         d="m 160.24326,186.09115 c 0,0 17.52836,17.48215 26.63291,19.9711 l 3.11881,0.8526 -0.2712,6.5772 c 0,0 -14.89858,-8.116 -18.42419,-10.67379 -3.52562,-2.55781 -8.0491,-7.64659 -9.06722,-8.79126 -0.96518,-1.08513 -2.38144,-3.11961 -2.38144,-3.11961 z"
         style="fill:#ffa60c;fill-opacity:1;stroke:none;stroke-width:0.25444692px;stroke-linecap:butt;stroke-linejoin:miter;stroke-opacity:1" />
    </g>
    <path
       sodipodi:nodetypes="cccsc"
       inkscape:connector-curvature="0"
       id="path4503-3-0-1-6-7-8-8-0"
       d="m 45.912945,29.34836 c 0,0 -7.780374,9.393217 -3.92795,13.058861 5.212091,4.276591 8.762352,-0.07636 8.762352,-0.07636 0,0 1.888432,-3.436544 0,-5.345737 -2.371928,-2.397992 -5.438703,-3e-6 -4.834402,-7.636764 z"
       style="fill:#ff7f2a;stroke:none;stroke-width:0.10633203px;stroke-linecap:butt;stroke-linejoin:miter;stroke-opacity:1" />
    <path
       sodipodi:nodetypes="cccc"
       inkscape:connector-curvature="0"
       id="path4503-3-6-7-5-6-5-8-7-7-4-9"
       d="m 43.731274,42.750568 c 3.955165,3.52582 7.016073,-0.41971 7.016073,-0.41971 0,0 1.433028,-2.833243 0,-4.407267 -1.953436,7.559681 -10.368359,0.903464 -7.016073,4.826977 z"
       style="fill:#fdc33b;fill-opacity:1;stroke:none;stroke-width:0.08410493px;stroke-linecap:butt;stroke-linejoin:miter;stroke-opacity:1" />
    <path
       inkscape:connector-curvature="0"
       style="fill:#ffffff;fill-opacity:1;stroke:#ffffff;stroke-width:0.25685567px;stroke-linecap:butt;stroke-linejoin:miter;stroke-opacity:1"
       d="m 63.915905,32.590755 c -0.736981,0.0067 -1.205095,0.02376 -1.205095,0.02376 l 0.0057,16.902845 -1.214397,0.977717 0.918807,1.200444 c 0,0 2.05328,-1.472038 2.213819,-1.945619 0.160525,-0.473578 0.104386,-5.562449 0.104386,-5.562449 0,0 5.650968,-0.06408 7.545276,-0.802537 1.894314,-0.738468 2.086695,-4.366657 2.086695,-4.366657 0,0 0.321501,-4.238005 -1.925981,-5.458065 -1.685627,-0.915052 -6.318267,-0.989545 -8.529204,-0.96945 z m 2.821014,1.808157 c 0.667565,0.01024 1.512562,0.07867 2.575555,0.249081 3.499376,0.560999 3.076297,2.469954 3.076297,3.870566 0,1.400609 0.157478,3.505423 -2.777606,3.651973 -2.98128,0.14887 -4.643128,0.0047 -4.643128,0.0047 L 64.621803,34.54878 c 0,0 0.580102,-0.06646 1.096058,-0.114721 0.281887,-0.02635 0.618521,-0.04128 1.019058,-0.03514 z"
       id="path5997-3" />
    <path
       inkscape:connector-curvature="0"
       style="fill:#ffffff;fill-opacity:1;stroke:#ffffff;stroke-width:0.2342319px;stroke-linecap:butt;stroke-linejoin:miter;stroke-opacity:1"
       d="m 80.545896,36.077881 c 0,0 -3.164003,0.336412 -4.510836,3.849894 -1.346832,3.513479 0.617935,7.619984 1.25884,8.227404 0.368671,0.349411 1.523831,1.533268 4.626589,1.308447 3.10275,-0.224809 4.303615,-3.152778 4.303615,-3.152778 0,0 1.375738,-3.103679 -0.146762,-6.529319 -1.522511,-3.425648 -3.801645,-3.689128 -5.531446,-3.703648 z m 0.164849,1.845365 c 1.276609,0.01074 2.958806,0.2061 4.082436,2.743502 1.123612,2.537389 0.108006,4.836396 0.108006,4.836396 0,0 -0.886185,2.16875 -3.176035,2.33526 -2.289871,0.166529 -3.142694,-0.710621 -3.414778,-0.969452 -0.472991,-0.449918 -1.923119,-3.491243 -0.929143,-6.093685 0.993976,-2.60246 3.329514,-2.852021 3.329514,-2.852021 z"
       id="path6068-0" />
    <path
       sodipodi:nodetypes="cscccccscccccccscc"
       inkscape:connector-curvature="0"
       id="path6642-7-9-1-7-7-5-0-9-8-2-2"
       d="m 96.77152,36.404549 c 0,0 0.791988,-0.0887 0.791988,0.88729 0,0.976011 -0.374338,11.198621 -0.108159,11.612691 0.248581,0.41271 0.46724,0.58977 0.847568,0.80934 l -0.789278,0.70982 c 0,0 -1.44268,-0.5252 -1.531422,-1.61953 -0.0887,-1.09431 -0.193288,-1.10148 -0.193288,-1.10148 0,0 -0.497721,1.7862 -3.130011,2.31858 -2.632278,0.53238 -3.901958,-2.28245 -3.901958,-2.28245 0,0 -0.395693,-1.7169 -0.410472,-2.9739 -0.01479,-1.25699 -0.140258,-8.24712 -0.140258,-8.24712 l 1.457269,-0.0837 -0.0837,8.11106 c 0,0 0.206611,4.29529 2.661441,4.23614 2.45482,-0.0591 3.507939,-3.0755 3.507939,-3.0755 0,0 0.171331,-0.90881 0.2009,-2.99393 0.0296,-2.08513 -0.01471,-6.29257 -0.01471,-6.29257 z"
       style="fill:#ffffff;fill-opacity:1;stroke:#ffffff;stroke-width:0.40191978;stroke-linecap:butt;stroke-linejoin:miter;stroke-miterlimit:4;stroke-dasharray:none;stroke-opacity:1" />
    <path
       sodipodi:nodetypes="ccccccccccscscccccc"
       inkscape:connector-curvature="0"
       id="path6640-6-6-3-4-8-7-5-4-7-2-6"
       d="m 102.19965,34.471399 c 0,0 0.10013,-0.099 0.24304,1.34386 0.0209,1.537151 0.0693,2.42961 0.36211,2.513261 0.29279,0.0837 3.30215,0.0722 3.86683,0.260369 0.56466,0.188221 0.44383,0.778011 0.44383,0.778011 l -4.52324,0.0582 0.0628,7.00605 c 0,0 0.25095,2.12273 1.29663,2.45734 1.04568,0.33462 3.19408,0.0666 3.19408,0.0666 l 0.72722,-0.0561 c 0,0 -0.24051,1.15025 -1.00386,1.40121 -0.76335,0.25096 -3.7017,0.1464 -4.49641,-0.66922 -0.79471,-0.81564 -1.18922,-1.88916 -1.18922,-3.44029 0,-2.13319 -0.16877,-6.77599 -0.16877,-6.77599 l -1.363294,-0.18894 -0.0512,-0.623381 1.603474,-0.25421 0.0112,-3.910839 z"
       style="fill:#ffffff;stroke:#ffffff;stroke-width:0.40191978;stroke-linecap:butt;stroke-linejoin:miter;stroke-miterlimit:4;stroke-dasharray:none;stroke-opacity:1" />
    <path
       sodipodi:nodetypes="ccsccscccccsc"
       inkscape:connector-curvature="0"
       id="path1081-5-4-6-4-1-1-6-1"
       d="m 108.92083,53.5731 0.26067,1.38911 c 0,0 2.76059,0.50193 3.42983,-0.87836 0.66923,-1.38029 5.77424,-17.719481 5.77424,-17.719481 l -1.63335,-0.0591 c 0,0 -3.30435,10.082441 -3.59714,10.207931 -0.29279,0.12547 -2.86516,-9.8503 -3.49256,-10.059441 -0.62741,-0.209129 -1.65218,-0.14639 -1.65218,-0.14639 l -0.14026,0.98188 c 0,0 1.08138,0.56573 1.29051,1.36044 0.20914,0.794711 3.388,10.833231 3.388,10.833231 0,0 -0.85698,3.00702 -1.43258,3.7958 -0.28233,0.38691 -2.19518,0.29441 -2.19518,0.29441 z"
       style="fill:#ffffff;fill-opacity:1;stroke:#ffffff;stroke-width:0.17705719;stroke-linecap:butt;stroke-linejoin:miter;stroke-miterlimit:4;stroke-dasharray:none;stroke-opacity:1" />
    <path
       sodipodi:nodetypes="ccsssccccccccsccc"
       inkscape:connector-curvature="0"
       id="path6720-0-7-5-7-2-1-2-2-7-1-8"
       d="m 127.52761,49.80973 v -7.98898 c 0,0 0.32826,-3.794181 -2.27122,-3.8983 -2.24531,-0.0899 -3.2918,1.68145 -3.2918,3.1454 0,1.46396 -0.0837,7.27793 -0.0837,7.48706 0,0.20913 0.0667,0.7535 -0.303,1.15278 -0.3697,0.39927 -0.79856,0.76897 -0.79856,0.76897 l -1.18305,-1.00559 c 0,0 1.09432,-0.96123 0.96122,-2.09991 -0.13308,-1.13868 -0.42884,-10.958 -0.42884,-10.958 l 1.53795,-0.0591 0.0887,2.35131 c 0,0 0.87161,-1.73259 2.05465,-2.057931 1.03666,-0.237499 2.01133,-0.22493 3.44787,0.53223 1.72376,0.908561 1.71409,2.960141 1.69928,3.936161 -0.0148,0.97601 0.16268,8.66584 0.16268,8.66584 z"
       style="fill:#ffffff;fill-opacity:1;stroke:#ffffff;stroke-width:0.40191978;stroke-linecap:butt;stroke-linejoin:miter;stroke-miterlimit:4;stroke-dasharray:none;stroke-opacity:1" />
    <path
       inkscape:connector-curvature="0"
       style="fill:#ffffff;fill-opacity:1;fill-rule:nonzero;stroke:#ffffff;stroke-width:0.40191978;stroke-linecap:butt;stroke-linejoin:miter;stroke-miterlimit:4;stroke-dasharray:none;stroke-opacity:1"
       d="m 135.72186,35.832935 -0.18448,0.0083 c 0,0 -3.52427,0.113332 -4.46537,3.83594 -0.94112,3.722611 -0.16088,6.438463 0.65474,7.630544 0.81563,1.192069 2.29027,2.530078 4.02612,2.530078 1.73582,0 3.36071,-0.276963 3.9672,-0.590664 0.60649,-0.313708 0.66921,-0.442865 0.66921,-0.442865 L 140.18567,47.2979 c 0,0 -1.44925,1.045557 -2.58382,1.076936 -1.13455,0.0313 -2.83585,0.408805 -4.19251,-1.370975 -0.79471,-1.040451 -1.1419,-2.847399 -1.14929,-3.109889 -0.007,-0.262491 -0.007,-0.45837 -0.007,-0.45837 l 8.83978,-0.106971 c 0,0 0.45054,-4.281167 -0.98392,-5.730399 -1.43443,-1.449228 -2.26672,-1.725197 -4.38681,-1.765265 z m 0.2868,1.241266 c 0.40723,-0.003 0.85421,0.05468 1.34049,0.194305 0.79198,0.227399 1.3678,0.572643 1.74356,1.107943 1.04151,1.48377 0.75396,3.813204 0.75396,3.813204 l -7.4936,0.03462 c 0,0 -0.0321,-2.747531 0.61857,-3.47214 0.25232,-0.516671 1.27238,-1.664946 3.03702,-1.677935 z"
       id="path6722-7-1-0-4-6-2-0-6-2-0-7" />
  </g>
</svg>
