<?xml version="1.0" encoding="UTF-8" standalone="no"?>
<!-- Created with Inkscape (http://www.inkscape.org/) -->

<svg
   xmlns:dc="http://purl.org/dc/elements/1.1/"
   xmlns:cc="http://creativecommons.org/ns#"
   xmlns:rdf="http://www.w3.org/1999/02/22-rdf-syntax-ns#"
   xmlns:svg="http://www.w3.org/2000/svg"
   xmlns="http://www.w3.org/2000/svg"
   xmlns:sodipodi="http://sodipodi.sourceforge.net/DTD/sodipodi-0.dtd"
   xmlns:inkscape="http://www.inkscape.org/namespaces/inkscape"
   width="21.98777mm"
   height="24.083496mm"
   viewBox="0 0 21.987769 24.083496"
   version="1.1"
   id="svg4722"
   inkscape:version="0.92.3 (2405546, 2018-03-11)"
   sodipodi:docname="poutyne-no-text.svg">
  <defs
     id="defs4716" />
  <sodipodi:namedview
     id="base"
     pagecolor="#ffffff"
     bordercolor="#666666"
     borderopacity="1.0"
     inkscape:pageopacity="0.0"
     inkscape:pageshadow="2"
     inkscape:zoom="2"
     inkscape:cx="326.13018"
     inkscape:cy="33.26441"
     inkscape:document-units="mm"
     inkscape:current-layer="layer1"
     showgrid="false"
     fit-margin-top="0"
     fit-margin-left="0"
     fit-margin-right="0"
     fit-margin-bottom="0"
     inkscape:window-width="1920"
     inkscape:window-height="1024"
     inkscape:window-x="1920"
     inkscape:window-y="0"
     inkscape:window-maximized="1" />
  <metadata
     id="metadata4719">
    <rdf:RDF>
      <cc:Work
         rdf:about="">
        <dc:format>image/svg+xml</dc:format>
        <dc:type
           rdf:resource="http://purl.org/dc/dcmitype/StillImage" />
        <dc:title></dc:title>
      </cc:Work>
    </rdf:RDF>
  </metadata>
  <g
     inkscape:label="Calque 1"
     inkscape:groupmode="layer"
     id="layer1"
     transform="translate(-35.532207,-29.34836)">
    <path
       sodipodi:nodetypes="ccccccc"
       inkscape:connector-curvature="0"
       id="path1183-4-1-9-4-3"
       d="m 56.662705,43.98858 -1.976307,-0.29546 c 0,0 -8.031233,3.16135 -11.664309,3.78385 -3.63307,0.62251 -7.489882,1.69737 -7.489882,1.69737 l 1.443765,1.8776 c 0,0 11.333529,-2.53121 13.150064,-3.17966 1.816541,-0.64844 6.536669,-3.8837 6.536669,-3.8837 z"
       style="fill:#fed86b;fill-opacity:1;stroke:none;stroke-width:0.1138476px;stroke-linecap:butt;stroke-linejoin:miter;stroke-opacity:1" />
    <path
       sodipodi:nodetypes="ccccc"
       inkscape:connector-curvature="0"
       id="path1185-7-5-3-4-5"
       d="m 36.903231,50.69326 0.18028,1.9808 -1.345063,-1.77861 -0.206241,-1.72111 c 0,0 1.243552,1.46704 1.371024,1.51892 z"
       style="fill:#fdc33b;fill-opacity:1;stroke:none;stroke-width:0.1138476px;stroke-linecap:butt;stroke-linejoin:miter;stroke-opacity:1" />
    <path
       sodipodi:nodetypes="csscccscc"
       inkscape:connector-curvature="0"
       id="path1179-3-4-9-6-3-6"
       d="m 56.662705,43.98858 c 0,0 -1.182034,0.80724 -2.925109,1.7865 -3.686609,2.07113 -10.608005,4.14703 -14.76116,4.6614 l -2.073205,0.25678 0.18028,1.9808 c 0,0 9.062401,-2.06522 11.406022,-2.83553 2.343621,-0.77031 6.486393,-2.93799 7.072301,-3.34149 0.585909,-0.4035 1.268893,-1.04628 1.268893,-1.04628 z"
       style="fill:#ffa60c;fill-opacity:1;stroke:none;stroke-width:0.1138476px;stroke-linecap:butt;stroke-linejoin:miter;stroke-opacity:1" />
    <g
       id="g1244-4-4-0-0-2"
       transform="matrix(0.60472881,0,0,0.30265206,-58.79263,-11.181952)">
      <path
         sodipodi:nodetypes="ccccccc"
         inkscape:connector-curvature="0"
         id="path1183-2-3-9-6-7-9"
         d="m 160.24326,186.09115 2.38478,-2.01029 c 0,0 12.69667,10.08742 18.16207,12.15442 5.46539,2.06702 11.50609,5.08141 11.50609,5.08141 l -2.41064,6.78914 c 0,0 -17.04954,-8.4048 -19.78223,-10.55794 -2.73271,-2.15313 -9.86007,-11.45674 -9.86007,-11.45674 z"
         style="fill:#fed86b;fill-opacity:1;stroke:none;stroke-width:0.25444692px;stroke-linecap:butt;stroke-linejoin:miter;stroke-opacity:1" />
      <path
         sodipodi:nodetypes="ccccc"
         inkscape:connector-curvature="0"
         id="path1185-0-0-0-2-8-1"
         d="m 189.99498,206.91485 -0.2712,6.5772 2.61468,-5.9322 -0.0423,-6.24316 c 0,0 -2.10946,5.42592 -2.30122,5.59816 z"
         style="fill:#fdc33b;fill-opacity:1;stroke:none;stroke-width:0.25444692px;stroke-linecap:butt;stroke-linejoin:miter;stroke-opacity:1" />
      <path
         sodipodi:nodetypes="cscccscc"
         inkscape:connector-curvature="0"
         id="path1179-3-6-7-9-6-6-2"
         d="m 160.24326,186.09115 c 0,0 17.52836,17.48215 26.63291,19.9711 l 3.11881,0.8526 -0.2712,6.5772 c 0,0 -14.89858,-8.116 -18.42419,-10.67379 -3.52562,-2.55781 -8.0491,-7.64659 -9.06722,-8.79126 -0.96518,-1.08513 -2.38144,-3.11961 -2.38144,-3.11961 z"
         style="fill:#ffa60c;fill-opacity:1;stroke:none;stroke-width:0.25444692px;stroke-linecap:butt;stroke-linejoin:miter;stroke-opacity:1" />
    </g>
    <path
       sodipodi:nodetypes="cccsc"
       inkscape:connector-curvature="0"
       id="path4503-3-0-1-6-7-8-8-0"
       d="m 45.912945,29.34836 c 0,0 -7.780374,9.393217 -3.92795,13.058861 5.212091,4.276591 8.762352,-0.07636 8.762352,-0.07636 0,0 1.888432,-3.436544 0,-5.345737 -2.371928,-2.397992 -5.438703,-3e-6 -4.834402,-7.636764 z"
       style="fill:#ff7f2a;stroke:none;stroke-width:0.10633203px;stroke-linecap:butt;stroke-linejoin:miter;stroke-opacity:1" />
    <path
       sodipodi:nodetypes="cccc"
       inkscape:connector-curvature="0"
       id="path4503-3-6-7-5-6-5-8-7-7-4-9"
       d="m 43.731274,42.750568 c 3.955165,3.52582 7.016073,-0.41971 7.016073,-0.41971 0,0 1.433028,-2.833243 0,-4.407267 -1.953436,7.559681 -10.368359,0.903464 -7.016073,4.826977 z"
       style="fill:#fdc33b;fill-opacity:1;stroke:none;stroke-width:0.08410493px;stroke-linecap:butt;stroke-linejoin:miter;stroke-opacity:1" />
  </g>
</svg>
